<?xml version="1.0" encoding="UTF-8" standalone="no"?>
<!DOCTYPE svg PUBLIC "-//W3C//DTD SVG 1.1//EN" "http://www.w3.org/Graphics/SVG/1.1/DTD/svg11.dtd">
<svg width="100%" height="100%" viewBox="0 0 1080 1080" version="1.1" xmlns="http://www.w3.org/2000/svg" xmlns:xlink="http://www.w3.org/1999/xlink" xml:space="preserve" xmlns:serif="http://www.serif.com/" style="fill-rule:evenodd;clip-rule:evenodd;stroke-linejoin:round;stroke-miterlimit:2;">
    <g id="hiring-on-text" serif:id="hiring on text" transform="matrix(1.47254,0,0,1.47254,-272.602,-819.519)">
        <g transform="matrix(0.806739,0,0,0.626665,54.0387,404.344)">
            <text x="246px" y="856px" style="font-family:'ChicRoyale';font-size:196.843px;fill:rgb(255,122,0);">Hirin  -On</text>
        </g>
        <g transform="matrix(0.683283,0,0,0.530767,370.446,487.433)">
            <text x="246px" y="856px" style="font-family:'BanglaMN', 'Bangla MN';font-size:196.843px;fill:rgb(255,122,0);">g</text>
        </g>
        <g transform="matrix(0.806739,0,0,0.626665,56.2588,403.87)">
            <path d="M357.216,729.43L356.527,729.43C356.199,729.43 355.674,729.594 354.952,729.922C354.231,730.25 353.574,730.743 352.984,731.399C352.393,732.055 351.868,733.072 351.409,734.45C350.95,735.828 350.72,737.501 350.72,739.469L350.72,844.78C350.72,847.929 351.245,850.357 352.295,852.063C353.345,853.769 354.46,854.688 355.641,854.819L357.216,855.016L357.216,856L321.981,856L321.981,854.819C322.112,854.95 322.342,854.983 322.67,854.917C322.998,854.852 323.556,854.688 324.343,854.425C325.131,854.163 325.787,853.704 326.312,853.047C326.837,852.391 327.362,851.374 327.886,849.996C328.411,848.618 328.674,846.88 328.674,844.78L328.674,798.845L280.397,798.845L279.857,844.78C279.857,847.929 280.382,850.357 281.432,852.063C282.481,853.769 283.597,854.688 284.778,854.819L286.353,854.819L286.353,856L251.118,856L251.118,854.819C251.249,854.95 251.479,854.983 251.807,854.917C252.135,854.852 252.66,854.688 253.382,854.425C254.103,854.163 254.759,853.704 255.35,853.047C255.941,852.391 256.498,851.341 257.023,849.898C257.548,848.454 257.811,846.748 257.811,844.78L257.811,739.469C257.811,736.32 257.253,733.925 256.137,732.284C255.022,730.644 253.874,729.758 252.693,729.627L251.118,729.43L251.118,728.446L286.353,728.446L286.353,729.43L285.664,729.43C285.336,729.43 284.811,729.594 284.089,729.922C283.367,730.25 282.711,730.743 282.121,731.399C281.53,732.055 281.005,733.072 280.546,734.45C280.087,735.828 279.857,737.501 279.857,739.469L279.857,786.121L328.674,786.121L328.674,739.469C328.674,736.32 328.116,733.925 327.001,732.284C325.885,730.644 324.737,729.758 323.556,729.627L321.981,729.43L321.981,728.446L357.216,728.446L357.216,729.43Z" style="fill:rgb(255,122,0);fill-rule:nonzero;"/>
        </g>
    </g>
</svg>
